<svg width="34" height="38" viewBox="0 0 34 38" fill="none" xmlns="http://www.w3.org/2000/svg">
<path d="M28.1076 7.92383C24.997 5.30898 21.03 3.93559 16.9685 4.06742C12.9508 3.97164 9.03366 5.32998 5.93779 7.89252C7.20371 6.15141 8.86204 4.73304 10.7784 3.75238C12.6947 2.77171 14.8151 2.25634 16.9678 2.24802L17.0002 2.24702L17.0325 2.24802C19.1906 2.27905 21.3125 2.80728 23.2333 3.79166C25.1541 4.77604 26.8221 6.19005 28.1076 7.92383ZM33.9984 17.3753C33.9961 17.2535 33.9919 17.134 33.9876 17.0147L31.8636 17.1263C31.8666 17.4018 31.8647 17.61 31.8755 17.7404C31.8905 17.9255 31.9311 17.9695 32.0828 17.9604C32.2345 17.9513 32.3674 17.9479 32.3674 17.9479C32.3674 17.9479 32.3704 18.6196 32.3704 19.3932C32.3524 19.6253 32.4232 19.8555 32.5685 20.0373C32.5432 20.0234 32.5225 20.0113 32.4955 19.9966C32.1432 19.8485 31.7523 19.8191 31.3819 19.9128C31.0993 19.9993 30.8264 20.1149 30.5678 20.2579C30.6789 21.0116 30.5202 21.7804 30.1198 22.4285C29.3758 23.9411 25.6459 31.9477 23.7967 34.5122C23.3923 35.153 22.8636 35.7062 22.2419 36.1393C22.262 36.3887 22.3006 36.6363 22.3574 36.88C22.4461 37.1565 22.6074 37.4042 22.8244 37.5972C23.0413 37.7902 23.3061 37.9215 23.5911 37.9773C25.1198 38.2283 26.542 36.3408 27.0875 35.5349C27.633 34.729 28.5435 33.27 30.4475 29.7572C32.0469 26.8064 33.6959 23.1736 33.6215 21.8347C33.5935 21.3993 33.4652 20.9763 33.2465 20.5987C33.1451 20.4454 33.0138 20.3141 32.8606 20.2126C32.9004 20.2222 32.941 20.2277 32.9819 20.2289C33.1351 20.2289 33.6025 20.1298 33.6025 19.415C33.6025 18.7002 33.5855 17.8826 33.5855 17.8826C33.5855 17.8826 33.6179 17.88 33.816 17.8707C33.9677 17.8636 34.0007 17.7837 34.0004 17.5655C34.0002 17.5085 34.0002 17.4449 33.9984 17.3753ZM4.09239 10.0282C4.38559 9.42696 4.63793 8.80662 4.84769 8.17142C6.33309 5.16322 11.0751 1.40622 16.9671 1.40622L17.0002 1.40522L17.0328 1.40622C22.925 1.40622 27.6668 5.16322 29.1528 8.17142C29.3624 8.80665 29.6146 9.42699 29.9078 10.0282C31.024 11.9373 31.6836 14.0787 31.8352 16.2849L33.9399 16.1743C33.7713 13.5057 32.9454 10.9202 31.5357 8.64802C31.2447 8.24673 30.9312 7.86234 30.5965 7.49672C29.1175 5.24465 27.1061 3.39198 24.7403 2.10271C22.3745 0.813446 19.7273 0.127371 17.0331 0.105225L17.0002 0.106025L16.9676 0.105225C14.2733 0.127268 11.6261 0.813297 9.26025 2.10257C6.8944 3.39184 4.88295 5.24458 3.40399 7.49672C3.06912 7.86223 2.75547 8.24662 2.46459 8.64802C1.05464 10.9206 0.228645 13.5066 0.060194 16.1757L2.16499 16.2862C2.31636 14.0795 2.97601 11.9377 4.09239 10.0282ZM11.3265 25.6219C10.2187 23.3848 8.95831 21.2266 7.55429 19.1624C7.21675 18.772 6.75937 18.5043 6.25362 18.4013C5.74788 18.2983 5.22226 18.3658 4.75889 18.5931C4.63141 18.6857 4.51064 18.7871 4.39749 18.8967C3.74659 19.6637 3.84229 20.5637 4.45349 21.8067C5.19749 23.3193 8.92739 31.3259 10.7766 33.8905C11.6942 35.1628 12.4257 35.8943 13.5666 35.7951C13.9255 35.765 14.2631 35.6123 14.5228 35.3627C14.8799 34.8898 15.0686 34.3109 15.0587 33.7183C14.9693 32.8502 14.6808 32.0144 14.2156 31.2759C14.0913 31.0276 11.7976 26.589 11.3265 25.6219ZM10.1415 34.5119C8.29229 31.9475 4.56219 23.9409 3.81829 22.4283C3.41783 21.7802 3.25913 21.0115 3.37019 20.2577C3.1115 20.1148 2.83863 19.9991 2.55599 19.9126C2.19715 19.8251 1.82004 19.8502 1.47599 19.9846C1.5877 19.8083 1.64128 19.6015 1.62919 19.3931C1.62919 18.6194 1.63219 17.9478 1.63219 17.9478C1.63219 17.9478 1.76539 17.9509 1.91709 17.9602C2.06879 17.9695 2.10919 17.9256 2.12439 17.7402C2.13499 17.6102 2.13319 17.4022 2.13609 17.1273L0.012094 17.0157C0.00769397 17.1347 0.00349397 17.2537 0.00129397 17.375C-0.000606027 17.475 0.00129397 17.5627 0.00249397 17.6357C0.00589397 17.8013 0.052494 17.8641 0.183994 17.8702C0.381994 17.8795 0.414594 17.8821 0.414594 17.8821C0.414594 17.8821 0.397294 18.6999 0.397294 19.4148C0.397294 20.1297 0.864694 20.2287 1.01789 20.2287C1.02789 20.2287 1.04309 20.2271 1.05699 20.226C0.912549 20.3257 0.788573 20.4521 0.691794 20.5985C0.47329 20.9761 0.344987 21.3991 0.316894 21.8345C0.242394 23.1734 1.89149 26.8062 3.49089 29.757C5.39479 33.2698 6.30519 34.7287 6.85089 35.5346C7.39659 36.3405 8.81849 38.2281 10.3472 37.9771C10.6321 37.9213 10.8969 37.79 11.1138 37.597C11.3308 37.4041 11.492 37.1564 11.5807 36.8799C11.6376 36.6362 11.6762 36.3887 11.6963 36.1392C11.0746 35.7061 10.5459 35.1527 10.1415 34.5119ZM29.4848 21.8064C30.096 20.5637 30.1917 19.6637 29.5408 18.8964C29.4276 18.7869 29.3068 18.6854 29.1794 18.5928C28.716 18.3655 28.1904 18.298 27.6846 18.401C27.1788 18.504 26.7214 18.7717 26.3838 19.1621C24.9799 21.2263 23.7196 23.3846 22.6117 25.6216C22.1405 26.5887 19.8468 31.0273 19.7229 31.2752C19.2578 32.0137 18.9693 32.8496 18.8798 33.7177C18.8699 34.3103 19.0586 34.8892 19.4159 35.3621C19.6755 35.6118 20.0131 35.7645 20.372 35.7945C21.5128 35.8937 22.2441 35.1623 23.162 33.8899C25.0108 31.3256 28.7409 23.319 29.4848 21.8064Z" fill="#1D1D1F"/>
</svg>
