<svg width="32" height="33" viewBox="0 0 32 33" fill="none" xmlns="http://www.w3.org/2000/svg">
<path d="M7.16788 0.71107C4.42708 0.81107 2.53438 2.57757 0.915076 4.30207C0.190976 5.07317 0.366976 5.64207 0.366976 7.24727C0.366976 9.41997 0.319776 9.68067 0.940176 10.6162C1.59586 11.6898 2.50843 12.5835 3.59563 13.2165C4.68283 13.8495 5.91047 14.202 7.16788 14.2422C11.3407 14.5639 14.942 11.2212 14.942 7.48467C14.942 3.74817 11.3499 0.55847 7.16788 0.71107ZM3.36988 9.54547C3.36988 9.72767 3.2975 9.90242 3.16866 10.0313C3.03982 10.1601 2.86508 10.2325 2.68288 10.2325C2.50067 10.2325 2.32593 10.1601 2.19709 10.0313C2.06826 9.90242 1.99588 9.72767 1.99588 9.54547V5.50767C1.99588 5.32547 2.06826 5.15072 2.19709 5.02189C2.32593 4.89305 2.50067 4.82067 2.68288 4.82067C2.86508 4.82067 3.03982 4.89305 3.16866 5.02189C3.2975 5.15072 3.36988 5.32547 3.36988 5.50767V9.54547ZM11.3534 7.52087C11.3526 7.79578 11.243 8.0592 11.0486 8.25359C10.8542 8.44798 10.5908 8.55755 10.3159 8.55837H8.07218C7.79723 8.55768 7.53375 8.44815 7.33935 8.25373C7.14494 8.05931 7.03544 7.79581 7.03478 7.52087V7.39207C7.03546 7.11714 7.14498 6.85368 7.33938 6.65928C7.53378 6.46487 7.79725 6.35536 8.07218 6.35467H10.3154C10.5903 6.35533 10.8538 6.46484 11.0482 6.65924C11.2427 6.85365 11.3522 7.11713 11.3529 7.39207L11.3534 7.52087ZM7.57988 15.6473C9.43004 15.7881 11.2717 15.2818 12.7899 14.2151V31.1992C12.7183 31.6699 12.491 32.1031 12.1443 32.4295C11.7977 32.7559 11.3517 32.9567 10.8775 33H9.10748C8.71516 32.9548 8.35 32.7771 8.07227 32.4964C7.79454 32.2156 7.62085 31.8485 7.57988 31.4558C7.57988 31.4558 7.59308 15.6606 7.57988 15.6473ZM16.6937 7.48467C16.6937 11.2212 20.295 14.5639 24.4678 14.2422C25.7252 14.202 26.9528 13.8495 28.04 13.2165C29.1272 12.5835 30.0398 11.6898 30.6955 10.6162C31.3155 9.68067 31.2687 9.41997 31.2687 7.24727C31.2687 5.64187 31.4447 5.07317 30.7206 4.30207C29.1013 2.57757 27.2086 0.81107 24.4678 0.71107C20.2853 0.55847 16.6937 3.74817 16.6937 7.48467ZM28.0218 5.50767C28.0218 5.32547 28.0942 5.15072 28.223 5.02189C28.3518 4.89305 28.5266 4.82067 28.7088 4.82067C28.891 4.82067 29.0657 4.89305 29.1946 5.02189C29.3234 5.15072 29.3958 5.32547 29.3958 5.50767V9.54547C29.3958 9.72767 29.3234 9.90242 29.1946 10.0313C29.0657 10.1601 28.891 10.2325 28.7088 10.2325C28.5266 10.2325 28.3518 10.1601 28.223 10.0313C28.0942 9.90242 28.0218 9.72767 28.0218 9.54547V5.50767ZM20.2828 7.39207C20.2835 7.1172 20.3929 6.85377 20.5873 6.65938C20.7816 6.46499 21.045 6.35544 21.3199 6.35467H23.5631C23.838 6.35536 24.1015 6.46487 24.2959 6.65928C24.4903 6.85368 24.5998 7.11714 24.6005 7.39207V7.52087C24.5998 7.79581 24.4903 8.05931 24.2959 8.25373C24.1015 8.44815 23.838 8.55768 23.5631 8.55837H21.3199C21.045 8.55755 20.7815 8.44798 20.5872 8.25359C20.3928 8.0592 20.2832 7.79578 20.2824 7.52087L20.2828 7.39207ZM23.9428 31.4558C23.9428 32.1691 22.8822 33 22.1557 33H20.3857C19.9465 32.9445 19.5424 32.7313 19.2488 32.4C18.9552 32.0686 18.7921 31.6419 18.7899 31.1992V14.2151C20.2867 15.2811 22.1102 15.788 23.9425 15.6473C23.9391 15.6656 23.9428 31.4558 23.9428 31.4558Z" fill="#1D1D1F"/>
</svg>
