<svg width="38" height="25" viewBox="0 0 38 25" fill="none" xmlns="http://www.w3.org/2000/svg">
<path d="M26.7829 14.8359C27.6339 15.0618 28.5117 15.1706 29.3922 15.1592V23.587C29.3654 23.9429 29.2157 24.2784 28.9688 24.5362C28.722 24.794 28.3932 24.958 28.0388 25.0001H26.4906C26.0924 24.9566 25.7249 24.7656 25.4604 24.4648C25.1959 24.164 25.0536 23.7751 25.0615 23.3746V14.1846C25.6206 14.4385 26.1956 14.6561 26.7829 14.8359ZM25.0615 13.0888C23.8072 12.4495 22.684 11.5807 21.7501 10.5274C20.8112 9.5044 20.2452 8.19433 20.144 6.80948C20.1016 5.63362 20.3788 4.46826 20.9463 3.43748C21.4306 2.64617 22.0968 1.98185 22.8894 1.49972C23.6821 1.01758 24.5783 0.731552 25.5038 0.665384C25.5498 0.665384 25.596 0.666151 25.6426 0.667685C27.0345 0.713685 30.3977 1.02648 33.4184 5.02668C33.2551 5.03287 33.0922 5.04739 32.9304 5.07018C32.1199 5.2065 31.3475 5.51252 30.6636 5.96819C29.9797 6.42385 29.3998 7.01888 28.9619 7.71428C28.1233 9.00871 27.6929 10.5252 27.7265 12.0671C27.7344 12.2949 27.7632 12.5216 27.8124 12.7442C27.9247 13.2347 28.128 13.6998 28.4117 14.1155C27.959 14.0821 27.5109 14.003 27.0743 13.8793C26.3826 13.6719 25.7093 13.4075 25.0615 13.0888ZM26.1271 6.75578C26.3201 6.88839 26.553 6.95037 26.7865 6.93126C27.0199 6.91215 27.2396 6.81313 27.4086 6.65088L27.4666 6.57848C27.5728 6.46551 27.6508 6.32903 27.6942 6.18017C27.7377 6.03131 27.7453 5.87429 27.7165 5.72192C27.6877 5.56955 27.6233 5.42615 27.5285 5.30342C27.4337 5.18068 27.3113 5.08209 27.1712 5.01568L25.6612 4.04388C25.4507 3.89712 25.197 3.82538 24.9409 3.84019C24.6848 3.85501 24.4411 3.95553 24.249 4.12558L24.1641 4.20798C24.076 4.31562 24.0122 4.44092 23.9769 4.5754C23.9415 4.70987 23.9355 4.85036 23.9592 4.98736C23.9829 5.12436 24.0358 5.25467 24.1143 5.36944C24.1928 5.48422 24.295 5.58078 24.4141 5.65258L26.1271 6.75578ZM37.8615 10.9513C37.8228 11.1532 37.7703 11.3522 37.7044 11.547C37.5437 12.0091 37.3302 12.4512 37.0681 12.8644C36.7534 13.4196 36.3524 13.9211 35.8801 14.3501C35.4912 14.7367 35.0277 15.0399 34.5177 15.2414C34.0077 15.4428 33.462 15.5381 32.9139 15.5216C32.2846 15.523 31.6597 15.4164 31.0664 15.2067C30.9922 15.172 30.9341 15.1377 30.8643 15.1031C30.5824 14.9657 30.3094 14.811 30.0468 14.6399C29.8285 14.4977 29.6231 14.3367 29.433 14.1587C29.4186 14.145 29.4062 14.1312 29.3923 14.1174C28.9613 13.6952 28.665 13.1548 28.5409 12.5644C28.5103 12.4291 28.49 12.2916 28.4801 12.1533C28.3235 10.3312 29.4177 6.42988 33.0566 5.80918C33.2849 5.76905 33.5162 5.74827 33.7479 5.74708C33.8153 5.74708 33.887 5.75818 33.9562 5.76238C34.2214 5.77437 34.4838 5.82227 34.7361 5.90478C34.7835 5.92128 34.825 5.94818 34.8715 5.96598C35.1192 6.0584 35.359 6.1707 35.5886 6.30178C36.3279 6.72802 36.9387 7.34582 37.3563 8.09008C37.6206 8.5787 37.8006 9.1084 37.8886 9.65688C37.9487 10.087 37.9395 10.524 37.8615 10.9513ZM36.5578 10.1713C36.4091 9.68258 35.846 9.69328 35.4954 10.1713L33.753 12.5727C33.4863 13.072 33.6882 13.6777 34.1557 13.6351H34.1567C34.8908 13.4162 35.5285 12.954 35.9649 12.3245C36.4013 11.695 36.6104 10.9355 36.5578 10.1713ZM9.10785 15.159V23.5868C9.1346 23.9428 9.28423 24.2784 9.53114 24.5362C9.77804 24.794 10.1069 24.958 10.4614 25.0001H12.0095C12.4076 24.9566 12.7751 24.7656 13.0396 24.4648C13.3041 24.164 13.4464 23.7751 13.4386 23.3746V14.1846C12.8794 14.4384 12.3044 14.6558 11.7173 14.8355C10.8663 15.0615 9.98829 15.1702 9.10785 15.159ZM17.5536 3.43728C18.121 4.46806 18.3983 5.63341 18.3559 6.80928C18.2547 8.19416 17.6889 9.5043 16.7501 10.5274C15.8162 11.5807 14.693 12.4496 13.4388 13.0888C12.7908 13.4074 12.1175 13.6717 11.4259 13.8788C10.9883 14.0027 10.5394 14.0818 10.0859 14.1151C10.3711 13.7 10.5752 13.2347 10.6876 12.7437C10.7367 12.5211 10.7655 12.2944 10.7735 12.0666C10.8069 10.5248 10.3765 9.00856 9.53805 7.71428C9.1002 7.01892 8.52038 6.42391 7.83657 5.96823C7.15276 5.51255 6.38038 5.20648 5.57005 5.07008C5.4082 5.0473 5.24528 5.03278 5.08195 5.02658C8.10265 1.02658 11.466 0.713583 12.8579 0.667583C12.9046 0.666083 12.9505 0.665283 12.9967 0.665283C13.922 0.731571 14.8181 1.01767 15.6107 1.49981C16.4033 1.98196 17.0692 2.64604 17.5536 3.43728ZM14.3363 4.20728L14.2514 4.12488C14.0592 3.95483 13.8155 3.85431 13.5594 3.83949C13.3033 3.82468 13.0496 3.89642 12.8392 4.04318L11.3292 5.01498C11.189 5.08139 11.0666 5.17999 10.9718 5.30272C10.877 5.42545 10.8126 5.56885 10.7838 5.72121C10.755 5.87357 10.7626 6.03059 10.806 6.17945C10.8495 6.32831 10.9274 6.4648 11.0337 6.57778L11.0918 6.65018C11.2607 6.81243 11.4804 6.91145 11.7138 6.93056C11.9473 6.94967 12.1802 6.88769 12.3733 6.75508L14.0871 5.65188C14.2059 5.58001 14.308 5.48343 14.3864 5.36869C14.4647 5.25395 14.5175 5.12371 14.5411 4.98681C14.5647 4.8499 14.5587 4.70951 14.5234 4.57514C14.488 4.44078 14.4242 4.31486 14.3363 4.20728ZM9.10785 14.1173C9.09395 14.1311 9.08155 14.1448 9.06715 14.1585C8.87703 14.3365 8.67164 14.4976 8.45335 14.6397C8.19067 14.8109 7.91761 14.9656 7.63575 15.1029C7.56575 15.1375 7.50795 15.1718 7.43375 15.2065C6.8404 15.4163 6.21549 15.5228 5.58615 15.5214C5.03811 15.5379 4.49244 15.4426 3.98247 15.2412C3.4725 15.0398 3.00893 14.7366 2.62005 14.3501C2.14762 13.921 1.74656 13.4194 1.43195 12.8641C1.16984 12.4509 0.956296 12.0088 0.795551 11.5467C0.729727 11.3519 0.677239 11.1529 0.638451 10.951C0.560485 10.5237 0.551336 10.0867 0.611351 9.65648C0.699482 9.10813 0.879474 8.57857 1.14375 8.09008C1.56159 7.34588 2.17245 6.72818 2.91195 6.30208C3.14131 6.17112 3.3809 6.05892 3.62835 5.96658C3.67515 5.94868 3.71685 5.92168 3.76435 5.90508C4.01672 5.82257 4.27911 5.77467 4.54435 5.76268C4.61355 5.75848 4.68515 5.74738 4.75255 5.74738C4.98432 5.74858 5.21558 5.76935 5.44385 5.80948C9.08275 6.43018 10.1771 10.3315 10.0205 12.1536C10.0105 12.292 9.99022 12.4294 9.95965 12.5647C9.83542 13.1552 9.53895 13.6951 9.10785 14.1173ZM4.74705 12.5727L3.00465 10.1715C2.65405 9.69348 2.09095 9.68278 1.94225 10.1715C1.89184 10.546 1.91662 10.9269 2.01512 11.2917C2.11363 11.6566 2.28389 11.9981 2.51595 12.2964C2.71262 12.6328 2.97631 12.9252 3.29066 13.1555C3.605 13.3857 3.96331 13.549 4.34335 13.6351C4.81095 13.6777 5.01375 13.072 4.74705 12.5727Z" fill="#1D1D1F"/>
</svg>
